<?xml version="1.0" encoding="UTF-8"?>
<svg width="512px" height="396px" viewBox="0 0 512 396" version="1.1" xmlns="http://www.w3.org/2000/svg" xmlns:xlink="http://www.w3.org/1999/xlink">
    <!-- Generator: Sketch 49.1 (51147) - http://www.bohemiancoding.com/sketch -->
    <title>otter</title>
    <desc>Created with Sketch.</desc>
    <defs></defs>
    <g id="Page-1" stroke="none" stroke-width="1" fill="none" fill-rule="evenodd">
        <g id="otter" fill-rule="nonzero">
            <path d="M66.694,140.437 C63.916,140.03 61.074,139.818 58.182,139.818 C26.049,139.818 0,165.867 0,198 C0,230.133 26.049,256.182 58.182,256.182 C61.072,256.182 63.914,255.971 66.692,255.565" id="Shape" fill="#D5842E"></path>
            <path d="M445.305,255.564 C448.084,255.971 450.927,256.182 453.818,256.182 C485.951,256.182 512,230.133 512,198 C512,165.867 485.951,139.818 453.818,139.818 C450.927,139.818 448.085,140.03 445.306,140.436" id="Shape" fill="#D5842E"></path>
            <circle id="Oval" fill="#EBE4DD" cx="256" cy="198" r="197.818"></circle>
            <path d="M256,0.182 L256,395.818 C365.253,395.818 453.818,307.252 453.818,198 C453.818,88.749 365.253,0.182 256,0.182 Z" id="Shape" fill-opacity="0.121065444" fill="#D5842E"></path>
            <path d="M389.818,249.921 L354.909,249.921 C354.909,272.378 336.639,290.648 314.182,290.648 C291.725,290.648 273.455,272.378 273.455,249.921 L238.546,249.921 C238.546,272.378 220.276,290.648 197.819,290.648 C175.362,290.648 157.092,272.378 157.092,249.921 L122.183,249.921 C122.183,289.478 152.712,322.018 191.443,325.269 C209.389,340.786 232.024,349.272 256.002,349.272 C279.966,349.272 302.611,340.782 320.558,325.269 C359.288,322.02 389.818,289.479 389.818,249.921 Z M240.33,312.444 C246.196,308.442 251.472,303.64 256,298.192 C260.528,303.64 265.804,308.442 271.668,312.443 C266.606,313.711 261.354,314.364 256,314.364 C250.645,314.364 245.391,313.711 240.33,312.444 Z" id="Shape" fill="#D5842E"></path>
            <path d="M354.909,249.921 C354.909,272.378 336.639,290.648 314.182,290.648 C291.725,290.648 273.455,272.378 273.455,249.921 L256,249.921 L256,298.191 C260.528,303.639 265.804,308.441 271.668,312.442 C266.606,313.71 261.354,314.363 256,314.363 L256,349.272 C279.964,349.272 302.609,340.782 320.556,325.269 C359.288,322.02 389.818,289.479 389.818,249.921 L354.909,249.921 Z" id="Shape" fill="#BE772C"></path>
            <path d="M145.455,220.831 L145.453,220.831 C132.622,220.831 122.183,210.391 122.183,197.558 C122.188,184.723 132.628,174.285 145.456,174.285 C158.289,174.285 168.729,184.725 168.729,197.558 C168.729,210.391 158.287,220.831 145.455,220.831 Z" id="Shape" fill="#58575D"></path>
            <path d="M366.545,220.831 L366.543,220.831 C353.712,220.831 343.273,210.391 343.273,197.558 C343.278,184.723 353.718,174.285 366.546,174.285 C379.379,174.285 389.819,184.725 389.819,197.558 C389.819,210.391 379.378,220.831 366.545,220.831 Z" id="Shape" fill="#454449"></path>
            <path d="M139.636,116.545 C184.622,116.545 221.091,153.013 221.091,198 C221.091,198 221.091,220.831 221.091,232.467 C221.091,255.74 256,255.74 256,255.74 C256,255.74 290.909,255.74 290.909,232.467 C290.909,220.831 290.909,198 290.909,198 C290.909,153.014 327.377,116.545 372.364,116.545 C417.351,116.545 453.819,153.013 453.819,198 C453.819,88.749 365.253,0.182 256.001,0.182 C146.749,0.182 58.182,88.749 58.182,198 C58.182,153.014 94.65,116.545 139.636,116.545 Z" id="Shape" fill="#D5842E"></path>
            <path d="M256,0.182 L256,255.74 C256,255.74 290.909,255.74 290.909,232.467 C290.909,220.831 290.909,198 290.909,198 C290.909,153.014 327.377,116.545 372.364,116.545 C417.351,116.545 453.819,153.013 453.819,198 C453.818,88.749 365.253,0.182 256,0.182 Z" id="Shape" fill="#CB7F2E"></path>
            <path d="M293.236,238.727 C287.12,257.287 270.731,277.747 256,278.06 C241.268,277.747 224.88,257.287 218.764,238.727 C215.939,229.246 223.242,221.397 235.055,221.272 C249.019,221.272 262.982,221.272 276.946,221.272 C288.76,221.397 296.062,229.245 293.236,238.727 Z" id="Shape" fill="#58575D"></path>
            <path d="M276.945,221.273 C269.963,221.273 262.981,221.273 256,221.273 L256,278.061 C270.732,277.748 287.12,257.288 293.236,238.728 C296.062,229.245 288.76,221.397 276.945,221.273 Z" id="Shape" fill="#454449"></path>
        </g>
    </g>
</svg>