<?xml version="1.0" encoding="iso-8859-1"?>
<!-- Generator: Adobe Illustrator 19.0.0, SVG Export Plug-In . SVG Version: 6.00 Build 0)  -->
<svg version="1.1" id="Capa_1" xmlns="http://www.w3.org/2000/svg" xmlns:xlink="http://www.w3.org/1999/xlink" x="0px" y="0px"
	 viewBox="0 0 512 512" style="enable-background:new 0 0 512 512;" xml:space="preserve">
<path style="fill:#6FCCFF;" d="M471.957,106.163H40.044C17.928,106.163,0,124.091,0,146.207v269.686
	c0,43.759,35.473,79.232,79.232,79.232h353.535c43.759,0,79.232-35.473,79.232-79.232V146.207
	C512,124.091,494.072,106.163,471.957,106.163z"/>
<path style="fill:#FFFFFF;" d="M0.003,327.395c28.176-12.523,65.295-4.132,120.008,27.132
	c40.271,23.01,89.964-33.195,115.009-41.721l27.821-1.931c23.855-2.515,47.901-15.601,63.792-27.31
	c39.655-29.219,104.355-16.697,137.748,37.568c11.166,18.147,28.645,25.682,46.96,27.654l-0.001,67.107
	c-0.001,43.758-35.474,79.23-79.232,79.23H79.234c-43.759,0-79.233-35.474-79.232-79.234L0.003,327.395z"/>
<path style="fill:#F9CD46;" d="M0,356.615c53.224,0,96.01,40.698,142.969,40.698s138.792-82.44,211.84-82.44
	s92.87,68.874,156.529,68.874v32.146c0,43.759-35.473,79.232-79.232,79.232H79.232C35.473,495.126,0,459.652,0,415.893V356.615z"/>
<path style="fill:#DB9E00;" d="M421.534,337.987c-74.802,27.038-126.958,105.962-126.958,105.962l-26.757,6.387
	c20.474-54.525,86.395-105.878,120.905-129.89c12.272,4.237,22.895,10.529,32.799,17.521L421.534,337.987z"/>
<path style="fill:#515B65;" d="M294.576,443.949l-26.757,6.387l-37.495-157.242c-0.01-0.01-0.01-0.01-0.01-0.01l-17.563-73.664
	l26.757-6.376l23.772,99.669L294.576,443.949z"/>
<path style="fill:#3B464F;" d="M249.397,254.509c-16.144,0-18.562,39.181-19.073,38.586c-0.01-0.01-0.01-0.01-0.01-0.01
	l-17.563-73.664l26.757-6.376L249.397,254.509z"/>
<path style="fill:#D93923;" d="M74.476,216.609c2.09,24.14-11.723,45.052-30.855,46.708c-19.13,1.656-36.333-16.569-38.423-40.71
	l49.923-36.244L74.476,216.609z"/>
<path style="fill:#BC2919;" d="M361.622,148.122c9.03,22.484,30.795,34.911,48.615,27.755c17.819-7.157,24.944-31.184,15.914-53.67
	l-49.095-2.11"/>
<g>
	<path style="fill:#EDB800;" d="M162.321,203.196c3.658,23.953-12.795,46.335-36.747,49.992
		c-23.953,3.658-46.335-12.795-49.992-36.747l41.11-27.99"/>
	<path style="fill:#EDB800;" d="M277.179,175.801c7.547,23.025,32.331,35.572,55.356,28.024
		c23.025-7.548,35.572-32.331,28.025-55.356l-45.596,1.368"/>
</g>
<g>
	<path style="fill:#D93923;" d="M162.413,203.174c-0.022,0.315,0.066,0.682,0.153,1.05c6.076,25.472,36.692,39.97,68.424,32.401
		s52.509-34.324,46.435-59.795c-0.088-0.367-0.175-0.734-0.337-1.006L225.22,161.84"/>
	<path style="fill:#D93923;" d="M220.061,190.804c74.872-17.858,144.496-41.432,206.236-68.656
		c-51.297-79.566-148.882-122.113-246.2-98.902S14.903,128.468,5.039,222.622c40.933-2.17,83.853-6.855,128.026-14.202
		C161.607,203.673,190.672,197.814,220.061,190.804z"/>
</g>
<g>
	<path style="fill:#EDB800;" d="M180.087,23.196C115.27,38.716,75.346,117.784,74.468,216.569v0.098
		c-23.72,2.733-46.855,4.783-69.501,5.954C14.826,128.424,82.765,46.427,180.087,23.196z"/>
	<path style="fill:#EDB800;" d="M180.087,23.196c26.356-6.248,65.206,57.592,97.028,152.571
		c-18.645,5.369-37.679,10.445-57.105,15.032c-19.425,4.588-38.655,8.786-57.689,12.397
		C147.874,104.021,153.73,29.442,180.087,23.196z"/>
</g>
<path style="fill:#CE9902;" d="M426.269,122.078c-20.695,9.176-42.365,17.863-64.718,25.966
	C316.161,60.289,244.902,7.772,180.087,23.196C277.407-0.037,374.924,42.522,426.269,122.078z"/>
<g>
	<path style="fill:#FFFFFF;" d="M448.729,243.39h-25.045c-4.322,0-7.827-3.504-7.827-7.827s3.504-7.827,7.827-7.827h25.045
		c4.322,0,7.827,3.504,7.827,7.827S453.051,243.39,448.729,243.39z"/>
	<path style="fill:#FFFFFF;" d="M161.753,299.741h-25.045c-4.322,0-7.827-3.504-7.827-7.827c0-4.322,3.504-7.827,7.827-7.827h25.045
		c4.322,0,7.827,3.504,7.827,7.827C169.58,296.237,166.075,299.741,161.753,299.741z"/>
	<path style="fill:#FFFFFF;" d="M484.209,195.386h-25.045c-4.322,0-7.827-3.504-7.827-7.827s3.504-7.827,7.827-7.827h25.045
		c4.322,0,7.827,3.504,7.827,7.827S488.532,195.386,484.209,195.386z"/>
</g>
<g>
	<path style="fill:#DB9E00;" d="M433.74,448.679c-6.767,0-10.302-8.363-5.637-13.246c2.441-2.556,6.42-3.111,9.488-1.38
		c2.773,1.564,4.358,4.773,3.891,7.932C440.921,445.777,437.584,448.679,433.74,448.679z"/>
	<path style="fill:#DB9E00;" d="M228.693,475.29c-3.489,0-6.603-2.382-7.543-5.735c-0.821-2.93,0.212-6.216,2.573-8.139
		c5.352-4.357,13.612,0.146,12.732,7.01C235.961,472.295,232.609,475.29,228.693,475.29z"/>
	<path style="fill:#DB9E00;" d="M78.433,461.202c-3.351,0-6.374-2.195-7.431-5.369c-1.041-3.128,0.062-6.712,2.704-8.693
		c5.476-4.104,13.471,0.567,12.464,7.39C85.612,458.317,82.252,461.202,78.433,461.202z"/>
	<path style="fill:#DB9E00;" d="M50.257,434.591c-7.179,0-10.549-9.308-4.97-13.871c2.695-2.204,6.62-2.345,9.469-0.348
		c2.522,1.768,3.797,4.986,3.158,8.003C57.157,431.95,53.919,434.591,50.257,434.591z"/>
	<path style="fill:#DB9E00;" d="M416.522,412.687c-3.202,0-6.155-2.039-7.3-5.021c-1.189-3.096-0.259-6.764,2.331-8.86
		c2.655-2.148,6.459-2.354,9.308-0.459c2.581,1.716,3.924,4.913,3.346,7.958C423.519,409.945,420.237,412.687,416.522,412.687z"/>
	<path style="fill:#DB9E00;" d="M100.337,425.21c-7.196,0-10.545-9.378-4.926-13.907c5.372-4.33,13.511,0.167,12.692,7.033
		C107.642,422.203,104.229,425.21,100.337,425.21z"/>
	<path style="fill:#DB9E00;" d="M396.172,437.722c-7.184,0-10.538-9.332-4.963-13.871c5.415-4.408,13.756,0.242,12.702,7.198
		C403.337,434.836,400.015,437.722,396.172,437.722z"/>
</g>
<g>
</g>
<g>
</g>
<g>
</g>
<g>
</g>
<g>
</g>
<g>
</g>
<g>
</g>
<g>
</g>
<g>
</g>
<g>
</g>
<g>
</g>
<g>
</g>
<g>
</g>
<g>
</g>
<g>
</g>
</svg>
