<?xml version="1.0" encoding="UTF-8"?>
<svg width="512px" height="480px" viewBox="0 0 512 480" version="1.1" xmlns="http://www.w3.org/2000/svg" xmlns:xlink="http://www.w3.org/1999/xlink">
    <!-- Generator: Sketch 49.1 (51147) - http://www.bohemiancoding.com/sketch -->
    <title>sun-umbrella</title>
    <desc>Created with Sketch.</desc>
    <defs></defs>
    <g id="Page-1" stroke="none" stroke-width="1" fill="none" fill-rule="evenodd">
        <g id="sun-umbrella" fill-rule="nonzero">
            <path d="M471.957,90.163 L40.044,90.163 C17.928,90.163 0,108.091 0,130.207 L0,399.893 C0,443.652 35.473,479.125 79.232,479.125 L432.767,479.125 C476.526,479.125 511.999,443.652 511.999,399.893 L511.999,130.207 C512,108.091 494.072,90.163 471.957,90.163 Z" id="Shape" fill="#0275D8"></path>
            <path d="M0.003,311.395 C28.179,298.872 65.298,307.263 120.011,338.527 C160.282,361.537 209.975,305.332 235.02,296.806 L262.841,294.875 C286.696,292.36 310.742,279.274 326.633,267.565 C366.288,238.346 430.988,250.868 464.381,305.133 C475.547,323.28 493.026,330.815 511.341,332.787 L511.34,399.894 C511.339,443.652 475.866,479.124 432.108,479.124 L79.234,479.124 C35.475,479.124 0.001,443.65 0.002,399.89 L0.003,311.395 Z" id="Shape" fill="#FFFFFF"></path>
            <path d="M0,340.615 C53.224,340.615 96.01,381.313 142.969,381.313 C189.928,381.313 281.761,298.873 354.809,298.873 C427.857,298.873 447.679,367.747 511.338,367.747 L511.338,399.893 C511.338,443.652 475.865,479.125 432.106,479.125 L79.232,479.125 C35.473,479.126 0,443.652 0,399.893 L0,340.615 Z" id="Shape" fill="#F9CD46"></path>
            <path d="M421.534,321.987 C346.732,349.025 294.576,427.949 294.576,427.949 L267.819,434.336 C288.293,379.811 354.214,328.458 388.724,304.446 C400.996,308.683 411.619,314.975 421.523,321.967 L421.534,321.987 Z" id="Shape" fill="#D5842E"></path>
            <path d="M294.576,427.949 L267.819,434.336 L230.324,277.094 C230.314,277.084 230.314,277.084 230.314,277.084 L212.751,203.42 L239.508,197.044 L263.28,296.713 L294.576,427.949 Z" id="Shape" fill="#515B65"></path>
            <path d="M249.397,238.509 C233.253,238.509 230.835,277.69 230.324,277.095 C230.314,277.085 230.314,277.085 230.314,277.085 L212.751,203.421 L239.508,197.045 L249.397,238.509 Z" id="Shape" fill="#3B464F"></path>
            <path d="M74.476,200.609 C76.566,224.749 62.753,245.661 43.621,247.317 C24.491,248.973 7.288,230.748 5.198,206.607 L55.121,170.363 L74.476,200.609 Z" id="Shape" fill="#D93923"></path>
            <path d="M361.622,132.122 C370.652,154.606 392.417,167.033 410.237,159.877 C428.056,152.72 435.181,128.693 426.151,106.207 L377.056,104.097" id="Shape" fill="#BC2919"></path>
            <g id="Group" transform="translate(75.000000, 132.000000)" fill="#D5842E">
                <path d="M87.321,55.196 C90.979,79.149 74.526,101.531 50.574,105.188 C26.621,108.846 4.239,92.393 0.582,68.441 L41.692,40.451" id="Shape"></path>
                <path d="M202.179,27.801 C209.726,50.826 234.51,63.373 257.535,55.825 C280.56,48.277 293.107,23.494 285.56,0.469 L239.964,1.837" id="Shape"></path>
            </g>
            <g id="Group" transform="translate(5.000000, 0.000000)" fill="#D93923">
                <path d="M157.413,187.174 C157.391,187.489 157.479,187.856 157.566,188.224 C163.642,213.696 194.258,228.194 225.99,220.625 C257.722,213.056 278.499,186.301 272.425,160.83 C272.337,160.463 272.25,160.096 272.088,159.824 L220.22,145.84" id="Shape"></path>
                <path d="M215.061,174.804 C289.933,156.946 359.557,133.372 421.297,106.148 C370,26.582 272.415,-15.965 175.097,7.246 C77.779,30.457 9.903,112.468 0.039,206.622 C40.972,204.452 83.892,199.767 128.065,192.42 C156.607,187.673 185.672,181.814 215.061,174.804 Z" id="Shape"></path>
            </g>
            <g id="Group" transform="translate(4.000000, 6.000000)">
                <path d="M176.087,1.196 C111.27,16.716 71.346,95.784 70.468,194.569 L70.468,194.667 C46.748,197.4 23.613,199.45 0.967,200.621 C10.826,106.424 78.765,24.427 176.087,1.196 Z" id="Shape" fill="#F5A753"></path>
                <path d="M176.087,1.196 C202.443,-5.052 241.293,58.788 273.115,153.767 C254.47,159.136 235.436,164.212 216.01,168.799 C196.585,173.387 177.355,177.585 158.321,181.196 C143.874,82.021 149.73,7.442 176.087,1.196 Z" id="Shape" fill="#FB8E1B"></path>
            </g>
            <path d="M426.269,106.078 C405.574,115.254 383.904,123.941 361.551,132.044 C316.161,44.289 244.902,-8.228 180.087,7.196 C277.407,-16.037 374.924,26.522 426.269,106.078 Z" id="Shape" fill="#D5842E"></path>
            <g id="Group" transform="translate(128.000000, 163.000000)" fill="#FFFFFF">
                <path d="M320.729,64.39 L295.684,64.39 C291.362,64.39 287.857,60.886 287.857,56.563 C287.857,52.24 291.361,48.736 295.684,48.736 L320.729,48.736 C325.051,48.736 328.556,52.24 328.556,56.563 C328.556,60.886 325.051,64.39 320.729,64.39 Z" id="Shape"></path>
                <path d="M33.753,120.741 L8.708,120.741 C4.386,120.741 0.881,117.237 0.881,112.914 C0.881,108.592 4.385,105.087 8.708,105.087 L33.753,105.087 C38.075,105.087 41.58,108.591 41.58,112.914 C41.58,117.237 38.075,120.741 33.753,120.741 Z" id="Shape"></path>
                <path d="M356.209,16.386 L331.164,16.386 C326.842,16.386 323.337,12.882 323.337,8.559 C323.337,4.236 326.841,0.732 331.164,0.732 L356.209,0.732 C360.531,0.732 364.036,4.236 364.036,8.559 C364.036,12.882 360.532,16.386 356.209,16.386 Z" id="Shape"></path>
            </g>
            <g id="Group" transform="translate(42.000000, 381.000000)" fill="#DB9E00">
                <path d="M391.74,51.679 C384.973,51.679 381.438,43.316 386.103,38.433 C388.544,35.877 392.523,35.322 395.591,37.053 C398.364,38.617 399.949,41.826 399.482,44.985 C398.921,48.777 395.584,51.679 391.74,51.679 Z" id="Shape"></path>
                <path d="M186.693,78.29 C183.204,78.29 180.09,75.908 179.15,72.555 C178.329,69.625 179.362,66.339 181.723,64.416 C187.075,60.059 195.335,64.562 194.455,71.426 C193.961,75.295 190.609,78.29 186.693,78.29 Z" id="Shape"></path>
                <path d="M36.433,64.202 C33.082,64.202 30.059,62.007 29.002,58.833 C27.961,55.705 29.064,52.121 31.706,50.14 C37.182,46.036 45.177,50.707 44.17,57.53 C43.612,61.317 40.252,64.202 36.433,64.202 Z" id="Shape"></path>
                <path d="M8.257,37.591 C1.078,37.591 -2.292,28.283 3.287,23.72 C5.982,21.516 9.907,21.375 12.756,23.372 C15.278,25.14 16.553,28.358 15.914,31.375 C15.157,34.95 11.919,37.591 8.257,37.591 Z" id="Shape"></path>
                <path d="M374.522,15.687 C371.32,15.687 368.367,13.648 367.222,10.666 C366.033,7.57 366.963,3.902 369.553,1.806 C372.208,-0.342 376.012,-0.548 378.861,1.347 C381.442,3.063 382.785,6.26 382.207,9.305 C381.519,12.945 378.237,15.687 374.522,15.687 Z" id="Shape"></path>
                <path d="M58.337,28.21 C51.141,28.21 47.792,18.832 53.411,14.303 C58.783,9.973 66.922,14.47 66.103,21.336 C65.642,25.203 62.229,28.21 58.337,28.21 Z" id="Shape"></path>
                <path d="M354.172,40.722 C346.988,40.722 343.634,31.39 349.209,26.851 C354.624,22.443 362.965,27.093 361.911,34.049 C361.337,37.836 358.015,40.722 354.172,40.722 Z" id="Shape"></path>
            </g>
        </g>
    </g>
</svg>